<svg xmlns="http://www.w3.org/2000/svg" viewBox="0 0 290.83 229.93"><defs><style>.cls-1{fill:#fff;}</style></defs><g id="Camada_2" data-name="Camada 2"><g id="Camada_1-2" data-name="Camada 1"><path class="cls-1" d="M103.36,207.48c7,.55,14.27,1.51,21.57,1.59a39.39,39.39,0,0,0,25.19-8.87,302.79,302.79,0,0,0,23.74-21.43c23.94-23.6,47.56-47.52,71.54-71.07,9.91-9.73,15.33-21.08,14.88-35-.66-20.27-15.19-37.45-35-40.92C209,29,195.2,33.6,183.53,45.53c-18.54,19-37.42,37.57-56.21,56.26-13.52,13.45-31.29,13.85-45.23.85-6.51-6.07-12.71-12.5-18.76-19-5.91-6.35-5.22-15,1.29-21.09a14.68,14.68,0,0,1,20.77.39c3.7,3.64,7.35,7.35,11,11,4.65,4.58,10.86,4.65,15.47.07q25.5-25.33,50.94-50.74c11.44-11.41,25-19.29,41-21.78,24.39-3.79,45.91,2.78,63.91,19.87a71.77,71.77,0,0,1,22.12,42.1c3.4,22.22-1.86,42.61-17.19,59C250.4,146.13,227,168.76,204,191.84c-7.1,7.15-14.14,14.36-21.42,21.32-7.63,7.29-16.25,13.07-26.68,15.64-11.19,2.75-21.73.31-31.23-5.45-7.44-4.51-14.1-10.29-21.09-15.53C103.3,207.6,103.17,207.18,103.36,207.48Z"/><path class="cls-1" d="M130.09,24.75,108.16,46.22a44.91,44.91,0,0,0-22-14c-24.47-6.71-49.53,8.17-54.38,33-3,15.36,1,29,12.26,40.27l32.87,32.82c14.59,14.57,39.49,14.49,54.05-.07q36.88-36.91,73.86-73.74c10.73-10.73,23.64-3.61,26.3,5.9,1.34,4.79.8,9.41-2.63,13-7.78,8.25-15.77,16.3-23.79,24.33q-27.75,27.82-55.59,55.55c-10.57,10.58-23.21,17.32-38.07,18.92-16.09,1.74-31.36-1.67-44-12-9.49-7.75-18-16.7-26.78-25.31C32.65,137.49,25.1,130,18,122.16,8.48,111.59,3,99,.88,84.92c-3-20.09,1.66-38.34,13.67-54.54C27.26,13.26,44.34,3.08,65.71.56,91.12-2.42,112.06,6.57,130.09,24.75Z"/></g></g></svg>